HIERARCHY
ROOT newVegas:Hips
{
	OFFSET 0.000000 96.479958 0.000000
	CHANNELS 6 Xposition Yposition Zposition Xrotation Yrotation Zrotation
	JOINT newVegas:Pelvis
	{
		OFFSET 0.000000 0.000000 0.000000
		CHANNELS 3 Xrotation Yrotation Zrotation
		JOINT newVegas:LeftUpLeg
		{
			OFFSET 18.735201 -5.666702 -4.541200
			CHANNELS 3 Xrotation Yrotation Zrotation
			JOINT newVegas:LeftLeg
			{
				OFFSET -0.021200 -31.938179 0.493100
				CHANNELS 3 Xrotation Yrotation Zrotation
				JOINT newVegas:LeftFoot
				{
					OFFSET 0.021200 -31.938179 -4.336299
					CHANNELS 3 Xrotation Yrotation Zrotation
					JOINT newVegas:LeftToeBase
					{
						OFFSET 0.943001 -26.722000 15.023500
						CHANNELS 3 Xrotation Yrotation Zrotation
						End Site
						{
							OFFSET 0.000000 30.670183 0.000000
						}
					}
				}
				JOINT newVegas:Left_PantLeg
				{
					OFFSET 0.663870 -9.044666 -1.108900
					CHANNELS 3 Xrotation Yrotation Zrotation
					End Site
					{
						OFFSET 1.415995 20.635357 0.000000
					}
				}
			}
		}
		JOINT newVegas:RightUpLeg
		{
			OFFSET -18.735201 -5.666702 -4.541200
			CHANNELS 3 Xrotation Yrotation Zrotation
			JOINT newVegas:RightLeg
			{
				OFFSET 0.018946 -31.938133 0.493100
				CHANNELS 3 Xrotation Yrotation Zrotation
				JOINT newVegas:RightFoot
				{
					OFFSET -0.018946 -31.938126 -4.336299
					CHANNELS 3 Xrotation Yrotation Zrotation
					JOINT newVegas:RightToeBase
					{
						OFFSET -0.943001 -26.722004 15.023500
						CHANNELS 3 Xrotation Yrotation Zrotation
						End Site
						{
							OFFSET 0.000000 30.670187 0.000000
						}
					}
				}
				JOINT newVegas:Right_PantLeg
				{
					OFFSET -0.661674 -9.044716 -1.108900
					CHANNELS 3 Xrotation Yrotation Zrotation
					End Site
					{
						OFFSET -1.415958 20.635269 0.000000
					}
				}
			}
		}
	}
	JOINT newVegas:Spine
	{
		OFFSET 0.000000 10.199997 -0.299500
		CHANNELS 3 Xrotation Yrotation Zrotation
		JOINT newVegas:Spine1
		{
			OFFSET 0.000000 11.900002 -1.516600
			CHANNELS 3 Xrotation Yrotation Zrotation
			JOINT newVegas:Spine2
			{
				OFFSET 0.000000 13.600006 -2.842500
				CHANNELS 3 Xrotation Yrotation Zrotation
				JOINT newVegas:Neck
				{
					OFFSET 0.000000 9.624100 -2.890100
					CHANNELS 3 Xrotation Yrotation Zrotation
					JOINT newVegas:Head
					{
						OFFSET 0.000000 14.068802 -1.351900
						CHANNELS 3 Xrotation Yrotation Zrotation
						JOINT newVegas:Hair_Back
						{
							OFFSET 0.000000 3.231903 -17.524799
							CHANNELS 3 Xrotation Yrotation Zrotation
							End Site
							{
								OFFSET 0.000000 19.849884 0.000000
							}
						}
						JOINT newVegas:Hair_Front
						{
							OFFSET 0.000000 31.260406 4.573800
							CHANNELS 3 Xrotation Yrotation Zrotation
							JOINT newVegas:Hair_Front1
							{
								OFFSET 0.000000 2.284103 11.993300
								CHANNELS 3 Xrotation Yrotation Zrotation
								JOINT newVegas:Hair_Front2
								{
									OFFSET 0.000000 2.284103 11.993300
									CHANNELS 3 Xrotation Yrotation Zrotation
									End Site
									{
										OFFSET 0.000000 12.208862 0.000000
									}
								}
							}
						}
						JOINT newVegas:Jowel
						{
							OFFSET 0.000000 -7.458206 6.864100
							CHANNELS 3 Xrotation Yrotation Zrotation
							End Site
							{
								OFFSET 0.000000 19.849884 0.000000
							}
						}
					}
				}
				JOINT newVegas:LeftShoulder
				{
					OFFSET 15.263000 10.923401 -0.547700
					CHANNELS 3 Xrotation Yrotation Zrotation
					JOINT newVegas:LeftArm
					{
						OFFSET 25.438599 -2.830597 -13.032500
						CHANNELS 3 Xrotation Yrotation Zrotation
						JOINT newVegas:LeftForeArm
						{
							OFFSET 29.960503 0.000000 0.000000
							CHANNELS 3 Xrotation Yrotation Zrotation
							JOINT newVegas:LeftHand
							{
								OFFSET 27.849251 0.000000 0.000000
								CHANNELS 3 Xrotation Yrotation Zrotation
								JOINT newVegas:LeftHandThumb1
								{
									OFFSET 4.487587 -3.305161 6.305391
									CHANNELS 3 Xrotation Yrotation Zrotation
									JOINT newVegas:LeftHandThumb2
									{
										OFFSET 5.480453 -3.164139 3.164143
										CHANNELS 3 Xrotation Yrotation Zrotation
										JOINT newVegas:LeftHandThumb3
										{
											OFFSET 5.159721 -2.978973 2.978967
											CHANNELS 3 Xrotation Yrotation Zrotation
											End Site
											{
												OFFSET 2.494507 5.926697 1.738678
											}
										}
									}
								}
								JOINT newVegas:LeftHandIndex1
								{
									OFFSET 18.578728 -0.527832 5.208049
									CHANNELS 3 Xrotation Yrotation Zrotation
									JOINT newVegas:LeftHandIndex2
									{
										OFFSET 3.192009 0.000000 0.000000
										CHANNELS 3 Xrotation Yrotation Zrotation
										JOINT newVegas:LeftHandIndex3
										{
											OFFSET 3.835129 0.000000 0.000000
											CHANNELS 3 Xrotation Yrotation Zrotation
											End Site
											{
												OFFSET -0.034599 3.816971 0.371180
											}
										}
									}
								}
								JOINT newVegas:LeftHandMiddle1
								{
									OFFSET 18.476105 0.000000 0.000000
									CHANNELS 3 Xrotation Yrotation Zrotation
									JOINT newVegas:LeftHandMiddle2
									{
										OFFSET 3.324875 0.000000 0.000000
										CHANNELS 3 Xrotation Yrotation Zrotation
										JOINT newVegas:LeftHandMiddle3
										{
											OFFSET 4.596550 0.000000 0.000000
											CHANNELS 3 Xrotation Yrotation Zrotation
											End Site
											{
												OFFSET 0.057701 4.578827 0.399218
											}
										}
									}
								}
								JOINT newVegas:LeftHandRing1
								{
									OFFSET 17.732719 0.121887 -4.201567
									CHANNELS 3 Xrotation Yrotation Zrotation
									JOINT newVegas:LeftHandRing2
									{
										OFFSET 2.733170 0.000000 0.000000
										CHANNELS 3 Xrotation Yrotation Zrotation
										JOINT newVegas:LeftHandRing3
										{
											OFFSET 3.178268 0.000000 0.000000
											CHANNELS 3 Xrotation Yrotation Zrotation
											End Site
											{
												OFFSET 0.119102 3.170624 0.185394
											}
										}
									}
								}
								JOINT newVegas:LeftHandPinky1
								{
									OFFSET 15.989624 -0.606689 -7.535461
									CHANNELS 3 Xrotation Yrotation Zrotation
									JOINT newVegas:LeftHandPinky2
									{
										OFFSET 2.538986 0.000000 0.000000
										CHANNELS 3 Xrotation Yrotation Zrotation
										JOINT newVegas:LeftHandPinky3
										{
											OFFSET 2.593102 0.000000 0.000000
											CHANNELS 3 Xrotation Yrotation Zrotation
											End Site
											{
												OFFSET -0.150902 2.584198 0.152708
											}
										}
									}
								}
							}
							JOINT newVegas:Left_Sleeve
							{
								OFFSET 0.267448 -0.649796 0.577675
								CHANNELS 3 Xrotation Yrotation Zrotation
								End Site
								{
									OFFSET 0.000000 15.991241 0.000000
								}
							}
							JOINT newVegas:Left_CapeC
							{
								OFFSET 15.715958 -8.608795 -6.935905
								CHANNELS 3 Xrotation Yrotation Zrotation
								JOINT newVegas:Left_CapeC1
								{
									OFFSET 0.000000 -8.688499 0.000000
									CHANNELS 3 Xrotation Yrotation Zrotation
									End Site
									{
										OFFSET 0.000000 8.688499 0.000000
									}
								}
							}
						}
						JOINT newVegas:Left_CapeB
						{
							OFFSET 26.118385 -8.608795 -7.079235
							CHANNELS 3 Xrotation Yrotation Zrotation
							JOINT newVegas:Left_CapeB1
							{
								OFFSET 0.000000 -8.688499 0.000000
								CHANNELS 3 Xrotation Yrotation Zrotation
								End Site
								{
									OFFSET 0.000000 8.688499 0.000000
								}
							}
						}
						JOINT newVegas:Left_CapeA
						{
							OFFSET 5.115639 -8.608795 -10.395809
							CHANNELS 3 Xrotation Yrotation Zrotation
							JOINT newVegas:Left_CapeA1
							{
								OFFSET 0.000000 -8.688499 0.000000
								CHANNELS 3 Xrotation Yrotation Zrotation
								End Site
								{
									OFFSET 0.000000 8.688499 0.000000
								}
							}
						}
					}
				}
				JOINT newVegas:RightShoulder
				{
					OFFSET -15.263000 10.923401 -0.547700
					CHANNELS 3 Xrotation Yrotation Zrotation
					JOINT newVegas:RightArm
					{
						OFFSET -25.438599 -2.830597 -13.032500
						CHANNELS 3 Xrotation Yrotation Zrotation
						JOINT newVegas:RightForeArm
						{
							OFFSET -29.960503 0.000000 0.000000
							CHANNELS 3 Xrotation Yrotation Zrotation
							JOINT newVegas:RightHand
							{
								OFFSET -27.849251 0.000000 0.000000
								CHANNELS 3 Xrotation Yrotation Zrotation
								JOINT newVegas:RightHandThumb1
								{
									OFFSET -4.487587 -3.305161 6.305391
									CHANNELS 3 Xrotation Yrotation Zrotation
									JOINT newVegas:RightHandThumb2
									{
										OFFSET -5.480453 -3.164139 3.164143
										CHANNELS 3 Xrotation Yrotation Zrotation
										JOINT newVegas:RightHandThumb3
										{
											OFFSET -5.159721 -2.978973 2.978967
											CHANNELS 3 Xrotation Yrotation Zrotation
											End Site
											{
												OFFSET -2.494507 5.926697 1.738678
											}
										}
									}
								}
								JOINT newVegas:RightHandIndex1
								{
									OFFSET -18.578728 -0.527832 5.208049
									CHANNELS 3 Xrotation Yrotation Zrotation
									JOINT newVegas:RightHandIndex2
									{
										OFFSET -3.192009 0.000000 0.000000
										CHANNELS 3 Xrotation Yrotation Zrotation
										JOINT newVegas:RightHandIndex3
										{
											OFFSET -3.835129 0.000000 0.000000
											CHANNELS 3 Xrotation Yrotation Zrotation
											End Site
											{
												OFFSET 0.034599 3.816971 0.371180
											}
										}
									}
								}
								JOINT newVegas:RightHandMiddle1
								{
									OFFSET -18.476105 0.000000 0.000000
									CHANNELS 3 Xrotation Yrotation Zrotation
									JOINT newVegas:RightHandMiddle2
									{
										OFFSET -3.324875 0.000000 0.000000
										CHANNELS 3 Xrotation Yrotation Zrotation
										JOINT newVegas:RightHandMiddle3
										{
											OFFSET -4.596550 0.000000 0.000000
											CHANNELS 3 Xrotation Yrotation Zrotation
											End Site
											{
												OFFSET -0.057701 4.578827 0.399218
											}
										}
									}
								}
								JOINT newVegas:RightHandRing1
								{
									OFFSET -17.732719 0.121887 -4.201567
									CHANNELS 3 Xrotation Yrotation Zrotation
									JOINT newVegas:RightHandRing2
									{
										OFFSET -2.733170 0.000000 0.000000
										CHANNELS 3 Xrotation Yrotation Zrotation
										JOINT newVegas:RightHandRing3
										{
											OFFSET -3.178268 0.000000 0.000000
											CHANNELS 3 Xrotation Yrotation Zrotation
											End Site
											{
												OFFSET -0.119102 3.170624 0.185394
											}
										}
									}
								}
								JOINT newVegas:RightHandPinky1
								{
									OFFSET -15.989624 -0.606689 -7.535461
									CHANNELS 3 Xrotation Yrotation Zrotation
									JOINT newVegas:RightHandPinky2
									{
										OFFSET -2.538986 0.000000 0.000000
										CHANNELS 3 Xrotation Yrotation Zrotation
										JOINT newVegas:RightHandPinky3
										{
											OFFSET -2.593102 0.000000 0.000000
											CHANNELS 3 Xrotation Yrotation Zrotation
											End Site
											{
												OFFSET 0.150902 2.584198 0.152708
											}
										}
									}
								}
							}
							JOINT newVegas:Right_CapeC
							{
								OFFSET -15.715958 -8.608795 -6.935905
								CHANNELS 3 Xrotation Yrotation Zrotation
								JOINT newVegas:Right_CapeC1
								{
									OFFSET 0.000000 -8.688499 0.000000
									CHANNELS 3 Xrotation Yrotation Zrotation
									End Site
									{
										OFFSET 0.000000 8.688499 0.000000
									}
								}
							}
							JOINT newVegas:Right_Sleeve
							{
								OFFSET -0.267448 -0.649994 0.577675
								CHANNELS 3 Xrotation Yrotation Zrotation
								End Site
								{
									OFFSET 0.000000 15.991302 0.000000
								}
							}
						}
						JOINT newVegas:Right_CapeA
						{
							OFFSET -5.115540 -8.608795 -10.395824
							CHANNELS 3 Xrotation Yrotation Zrotation
							JOINT newVegas:Right_CapeA1
							{
								OFFSET 0.000000 -8.688499 0.000000
								CHANNELS 3 Xrotation Yrotation Zrotation
								End Site
								{
									OFFSET 0.000000 8.688499 0.000000
								}
							}
						}
						JOINT newVegas:Right_CapeB
						{
							OFFSET -26.118187 -8.608795 -7.079266
							CHANNELS 3 Xrotation Yrotation Zrotation
							JOINT newVegas:Right_CapeB1
							{
								OFFSET 0.000000 -8.688499 0.000000
								CHANNELS 3 Xrotation Yrotation Zrotation
								End Site
								{
									OFFSET 0.000000 8.688499 0.000000
								}
							}
						}
					}
				}
				JOINT newVegas:Left_Collar
				{
					OFFSET 18.625099 8.655502 8.828100
					CHANNELS 3 Xrotation Yrotation Zrotation
					JOINT newVegas:Left_Collar1
					{
						OFFSET 14.783401 10.540405 -1.259500
						CHANNELS 3 Xrotation Yrotation Zrotation
						End Site
						{
							OFFSET 0.000000 18.199875 0.000000
						}
					}
				}
				JOINT newVegas:Collar_Back
				{
					OFFSET 0.000000 15.630707 -20.132601
					CHANNELS 3 Xrotation Yrotation Zrotation
					End Site
					{
						OFFSET 0.000000 22.523010 0.000000
					}
				}
				JOINT newVegas:Left_Peck
				{
					OFFSET 17.239599 -5.132599 25.482599
					CHANNELS 3 Xrotation Yrotation Zrotation
					End Site
					{
						OFFSET 0.000000 22.523010 0.000000
					}
				}
				JOINT newVegas:Right_Peck
				{
					OFFSET -17.239599 -5.132202 25.482599
					CHANNELS 3 Xrotation Yrotation Zrotation
					End Site
					{
						OFFSET 0.000000 22.523010 0.000000
					}
				}
				JOINT newVegas:Right_Collar
				{
					OFFSET -18.625099 8.655792 8.828100
					CHANNELS 3 Xrotation Yrotation Zrotation
					JOINT newVegas:Right_Collar1
					{
						OFFSET -14.783401 10.539993 -1.259500
						CHANNELS 3 Xrotation Yrotation Zrotation
						End Site
						{
							OFFSET 0.000000 18.199631 0.000000
						}
					}
				}
			}
		}
		JOINT newVegas:Belly
		{
			OFFSET 0.000000 -6.540398 9.014299
			CHANNELS 3 Xrotation Yrotation Zrotation
			End Site
			{
				OFFSET 0.000000 11.566666 0.000000
			}
		}
	}
	JOINT newVegas:ElvisFacialAnim_Joint
	{
		OFFSET 1.000000 -95.330101 -8.825800
		CHANNELS 3 Xrotation Yrotation Zrotation
		End Site
		{
			OFFSET 0.000000 35.315800 0.000000
		}
	}
}
MOTION
Frames: 4
Frame Time: 0.033333
-0.186740 87.660904 -7.303932 18.487871 -2.365453 -0.079650 -0.000001 0.000000 -0.000000 -55.752785 9.953465 13.773449 42.002040 8.897524 4.152367 -4.668724 0.593795 -7.863161 -0.000000 -0.000002 -0.000000 -0.000000 0.000003 -0.000000 -55.701139 -17.363987 -11.073256 38.113586 -3.510442 -10.084888 -3.324700 -0.946181 9.602725 -0.000000 -0.000001 -0.000000 -0.000000 0.000003 -0.000001 23.141924 1.292458 -1.012517 0.825649 0.246909 0.810671 0.823079 0.286026 0.800247 -6.993897 0.507603 -0.611271 -6.993905 0.507603 -0.611271 -0.000002 0.000000 0.000000 -6.993897 0.507604 -0.611272 -6.993973 0.507604 -0.611270 -0.000001 -0.000000 0.000000 -0.000002 0.000000 0.000000 0.968162 2.117802 -9.183840 -23.461898 -20.605940 -63.298136 0.000071 -114.841339 0.000066 23.482641 28.668616 -17.773476 -6.912470 -6.826655 22.000073 7.736211 24.074860 6.021083 -0.000005 0.000001 -0.000001 0.302167 -2.021188 17.003737 1.250450 3.961838 -35.021935 -0.000000 -0.000002 -0.000004 0.302727 -2.023021 17.019744 1.251548 3.963390 -35.038000 -0.000000 -0.000002 0.000000 0.302158 -2.021169 17.003742 1.250454 3.961823 -35.021945 -0.000000 -0.000001 -0.000001 -0.900398 1.850717 17.512390 1.264635 -0.102754 -35.443201 -0.000001 -0.000003 -0.000001 -0.000001 0.000000 0.000001 -0.000001 0.000000 0.000001 -0.000001 -0.000000 0.000001 0.000000 0.000000 0.000000 0.000001 0.000000 -0.000001 0.000000 0.000000 0.000000 0.000001 -0.000000 0.000001 2.791600 21.942237 5.489946 -16.304833 -14.062310 56.429852 0.000043 126.006827 -0.000058 13.124956 -35.301515 24.468164 1.140161 15.517980 -8.963586 0.484856 -35.635815 -9.940361 0.000001 -0.000002 -0.000003 0.326715 2.110290 -17.599603 1.282025 -4.028022 35.297977 -0.000001 -0.000001 -0.000001 0.326714 2.110291 -17.599601 1.282023 -4.028020 35.297984 0.000002 -0.000000 0.000001 0.326712 2.110287 -17.599615 1.282035 -4.028032 35.297987 -0.000000 0.000008 0.000000 0.326719 2.110305 -17.599599 1.282026 -4.028027 35.297970 0.000001 0.000002 -0.000000 0.000000 -0.000001 -0.000001 0.000001 -0.000000 0.000000 -0.000000 0.000000 -0.000003 0.000003 0.000001 0.000003 0.000003 0.000002 0.000003 0.000003 0.000001 0.000003 0.000003 0.000002 0.000003 0.000000 -0.000000 -0.000000 0.000000 -0.000000 -0.000000 0.000000 -0.000000 -0.000000 0.000000 -0.000000 -0.000000 0.000000 -0.000000 -0.000000 0.000000 -0.000000 -0.000000 0.000000 -0.000000 -0.000000 -0.000000 0.000000 -0.000000 -0.000001 0.000000 -0.000000 
-0.189512 87.658867 -7.310083 18.505921 -2.352662 -0.071805 0.000001 0.000000 0.000000 -55.769301 9.956923 13.756327 41.981030 8.892315 4.155638 -4.648635 0.595954 -7.853739 -0.000000 -0.000000 -0.000000 -0.000000 0.000001 0.000001 -55.742335 -17.388642 -11.095278 38.137529 -3.482504 -10.090869 -3.344592 -0.947505 9.593596 -0.000000 0.000000 0.000000 -0.000000 -0.000002 -0.000000 23.208237 1.300504 -1.039291 0.770813 0.247684 0.778752 0.768337 0.285240 0.767919 -6.975323 0.504350 -0.605832 -6.975297 0.504349 -0.605832 0.000000 0.000000 -0.000000 -6.975327 0.504352 -0.605833 -6.975312 0.504344 -0.605830 -0.000001 0.000000 -0.000000 0.000000 0.000000 0.000000 0.978228 2.078647 -9.150659 -23.449142 -20.588951 -63.325471 0.000107 -114.814483 0.000105 23.667666 28.613431 -17.979800 -6.912466 -6.826656 22.000068 7.736217 24.074863 6.021090 0.000004 -0.000003 -0.000003 0.302171 -2.021188 17.003734 1.250446 3.961836 -35.021938 -0.000000 -0.000000 0.000001 0.302730 -2.023022 17.019745 1.251546 3.963391 -35.038003 -0.000002 0.000001 0.000000 0.302160 -2.021171 17.003739 1.250457 3.961823 -35.021945 0.000000 -0.000000 -0.000005 -0.900403 1.850714 17.512381 1.264633 -0.102757 -35.443194 0.000001 -0.000002 -0.000000 -0.000000 -0.000001 0.000000 -0.000000 -0.000001 0.000000 -0.000000 -0.000001 0.000000 0.000001 0.000001 0.000003 0.000001 0.000001 0.000002 0.000001 0.000001 0.000003 0.000001 -0.000000 0.000003 2.791802 21.963614 5.503894 -16.267976 -14.128903 56.428202 0.000018 126.017291 -0.000026 12.847937 -35.283787 24.198875 1.140156 15.517975 -8.963568 0.484842 -35.635798 -9.940377 0.000001 -0.000007 -0.000001 0.326736 2.110306 -17.599594 1.282031 -4.028041 35.297977 -0.000003 -0.000003 -0.000002 0.326728 2.110306 -17.599579 1.282043 -4.028040 35.297984 -0.000000 0.000002 0.000000 0.326729 2.110314 -17.599581 1.282043 -4.028049 35.297974 -0.000000 0.000000 0.000003 0.326737 2.110315 -17.599587 1.282026 -4.028030 35.297970 0.000001 0.000005 -0.000002 -0.000000 0.000000 -0.000001 -0.000000 0.000000 0.000001 -0.000000 0.000000 -0.000001 0.000001 -0.000002 0.000001 0.000001 -0.000001 0.000002 0.000001 -0.000002 0.000001 0.000001 -0.000001 0.000002 -0.000002 0.000000 -0.000000 -0.000002 0.000000 -0.000000 -0.000002 0.000000 -0.000000 -0.000002 0.000000 -0.000000 -0.000002 0.000000 -0.000000 -0.000002 0.000000 -0.000000 -0.000002 0.000000 -0.000000 0.000001 0.000000 -0.000000 0.000001 0.000000 0.000000 
-0.187541 87.653610 -7.304535 18.539647 -2.353859 -0.062309 -0.000001 0.000000 -0.000000 -55.802697 9.988758 13.741289 41.975648 8.876627 4.189284 -4.652039 0.602441 -7.865051 -0.000000 -0.000000 -0.000000 -0.000000 -0.000001 -0.000001 -55.799203 -17.429564 -11.115879 38.166779 -3.440801 -10.108108 -3.373018 -0.950293 9.588152 0.000000 0.000000 -0.000000 0.000001 -0.000003 -0.000000 23.239118 1.312555 -1.056922 0.731054 0.249335 0.764529 0.728602 0.286085 0.753412 -6.964324 0.503615 -0.611745 -6.964325 0.503615 -0.611745 -0.000000 -0.000000 -0.000000 -6.964315 0.503619 -0.611746 -6.964265 0.503610 -0.611745 0.000000 0.000000 -0.000000 -0.000000 -0.000000 -0.000000 0.988812 2.057680 -9.197842 -23.467910 -20.560855 -63.325764 -0.000034 -114.809524 -0.000039 23.742212 28.603114 -18.194683 -6.912472 -6.826658 22.000073 7.736204 24.074860 6.021083 0.000001 0.000001 0.000003 0.302166 -2.021189 17.003739 1.250441 3.961835 -35.021935 -0.000000 -0.000001 0.000003 0.302725 -2.023021 17.019745 1.251552 3.963389 -35.038000 -0.000001 0.000000 0.000004 0.302157 -2.021170 17.003749 1.250458 3.961822 -35.021949 0.000002 -0.000001 -0.000000 -0.900407 1.850715 17.512388 1.264630 -0.102755 -35.443194 0.000001 -0.000004 0.000003 -0.000001 0.000000 0.000001 -0.000001 0.000000 0.000001 -0.000000 0.000000 0.000001 -0.000000 0.000000 -0.000000 -0.000000 -0.000001 0.000001 -0.000000 0.000000 -0.000000 -0.000000 -0.000001 0.000000 2.793524 21.983573 5.508144 -16.234637 -14.172901 56.416454 0.000013 126.032399 0.000018 12.631271 -35.313714 24.038704 1.140142 15.517978 -8.963564 0.484838 -35.635808 -9.940353 0.000003 0.000002 -0.000002 0.326724 2.110266 -17.599591 1.282037 -4.028040 35.297987 -0.000001 -0.000001 -0.000003 0.326718 2.110262 -17.599587 1.282032 -4.028037 35.297984 0.000002 0.000001 0.000002 0.326710 2.110266 -17.599589 1.282041 -4.028043 35.297977 -0.000001 0.000003 -0.000003 0.326715 2.110275 -17.599591 1.282033 -4.028026 35.297984 -0.000002 0.000003 -0.000001 -0.000000 0.000000 -0.000001 -0.000000 0.000000 -0.000001 -0.000000 0.000000 -0.000002 -0.000000 -0.000001 -0.000001 -0.000000 0.000000 0.000001 -0.000000 -0.000001 -0.000001 -0.000000 -0.000000 0.000001 -0.000001 0.000000 -0.000000 -0.000001 0.000000 -0.000000 -0.000001 0.000000 -0.000000 -0.000001 0.000000 -0.000000 -0.000001 0.000000 -0.000000 -0.000001 0.000000 -0.000000 -0.000001 0.000000 -0.000000 -0.000001 0.000000 -0.000000 -0.000001 0.000000 -0.000000 
-0.181156 87.645630 -7.284903 18.581294 -2.375050 -0.056054 -0.000001 0.000000 0.000000 -55.864677 10.081931 13.731410 42.005141 8.839139 4.279541 -4.693318 0.608445 -7.877874 -0.000000 -0.000001 -0.000000 0.000000 0.000002 -0.000001 -55.859121 -17.493388 -11.132890 38.195319 -3.381279 -10.128820 -3.404073 -0.952645 9.580345 0.000000 0.000002 0.000000 0.000000 -0.000000 -0.000000 23.231319 1.331255 -1.065043 0.711185 0.252441 0.773542 0.708679 0.289467 0.762222 -6.961098 0.504865 -0.629287 -6.961113 0.504866 -0.629287 0.000000 0.000000 0.000000 -6.961175 0.504866 -0.629286 -6.961018 0.504866 -0.629288 0.000000 -0.000000 -0.000000 0.000000 0.000000 0.000000 0.996859 2.049244 -9.286645 -23.499124 -20.527874 -63.308593 0.000038 -114.830711 0.000035 23.692833 28.661857 -18.385455 -6.912465 -6.826656 22.000070 7.736209 24.074858 6.021088 0.000002 -0.000000 -0.000006 0.302167 -2.021191 17.003737 1.250445 3.961838 -35.021938 -0.000002 0.000000 0.000001 0.302731 -2.023021 17.019745 1.251546 3.963390 -35.038000 -0.000003 -0.000000 -0.000000 0.302161 -2.021171 17.003744 1.250453 3.961823 -35.021949 0.000003 -0.000002 -0.000005 -0.900398 1.850717 17.512383 1.264637 -0.102755 -35.443197 -0.000002 -0.000005 -0.000004 0.000000 0.000000 -0.000001 0.000000 0.000000 -0.000001 0.000001 -0.000001 -0.000001 0.000001 0.000000 -0.000000 0.000001 0.000000 -0.000001 0.000001 0.000000 -0.000000 0.000001 -0.000001 -0.000000 2.797441 22.012798 5.503979 -16.227823 -14.237296 56.408336 0.000006 126.055430 0.000010 12.490649 -35.383669 24.022820 1.140159 15.517999 -8.963571 0.484804 -35.635836 -9.940370 0.000002 -0.000003 0.000001 0.326713 2.110297 -17.599605 1.282038 -4.028039 35.297977 -0.000001 0.000001 -0.000003 0.326712 2.110297 -17.599599 1.282035 -4.028045 35.297980 -0.000001 -0.000003 0.000003 0.326708 2.110288 -17.599606 1.282047 -4.028037 35.297967 0.000001 0.000001 -0.000004 0.326713 2.110299 -17.599608 1.282033 -4.028031 35.297980 0.000001 0.000003 -0.000002 0.000000 0.000000 -0.000000 0.000000 0.000000 0.000000 0.000000 0.000000 -0.000002 0.000000 -0.000001 0.000001 0.000000 0.000000 0.000002 0.000000 -0.000001 0.000001 0.000000 0.000000 0.000002 0.000001 -0.000000 -0.000000 0.000001 -0.000000 -0.000000 0.000001 -0.000000 -0.000000 0.000001 -0.000000 -0.000000 0.000001 -0.000000 -0.000000 0.000001 -0.000000 -0.000000 0.000001 -0.000000 -0.000000 -0.000000 0.000000 -0.000000 -0.000001 0.000000 0.000000 
